<svg width="454" height="43" viewBox="0 0 454 43" fill="none" xmlns="http://www.w3.org/2000/svg">
<rect width="454" height="43" fill="#D9D9D9"/>
<rect x="444" width="10" height="43" fill="black"/>
<rect width="10" height="43" fill="black"/>
<path d="M29.44 34V13.4H29.36L24.4 15.76L23.4 11.2L30.32 8H35.32V34H29.44Z" fill="black"/>
<path d="M421.44 34V13.4H421.36L416.4 15.76L415.4 11.2L422.32 8H427.32V34H421.44Z" fill="black"/>
<rect x="207.615" y="21.3853" width="27.4149" height="27.2978" transform="rotate(-45 207.615 21.3853)" fill="white"/>
<path d="M215.47 16L215.36 13.42C215.33 12.61 215.3 11.63 215.3 10.65H215.28C215.06 11.51 214.78 12.47 214.52 13.26L213.7 15.89H212.51L211.79 13.29C211.57 12.49 211.35 11.53 211.18 10.65H211.16C211.13 11.56 211.09 12.6 211.05 13.44L210.92 16H209.51L209.94 9.26H211.97L212.63 11.51C212.85 12.29 213.05 13.13 213.2 13.92H213.24C213.42 13.14 213.65 12.25 213.88 11.5L214.59 9.26H216.59L216.95 16H215.47ZM220.436 10.99C221.926 10.99 222.926 12.02 222.926 13.5C222.926 15.29 221.656 16.11 220.346 16.11C218.916 16.11 217.816 15.17 217.816 13.59C217.816 12 218.856 10.99 220.436 10.99ZM220.386 12.08C219.666 12.08 219.386 12.83 219.386 13.55C219.386 14.39 219.736 15.02 220.386 15.02C220.986 15.02 221.356 14.43 221.356 13.54C221.356 12.82 221.076 12.08 220.386 12.08ZM227.117 8.9H228.637V14.54C228.637 15.09 228.657 15.67 228.677 16H227.327L227.267 15.29H227.237C226.937 15.83 226.337 16.11 225.707 16.11C224.547 16.11 223.617 15.12 223.617 13.6C223.607 11.95 224.637 10.99 225.807 10.99C226.417 10.99 226.877 11.21 227.097 11.54H227.117V8.9ZM227.117 13.82V13.18C227.117 13.1 227.117 12.99 227.097 12.9C227.007 12.5 226.677 12.16 226.207 12.16C225.507 12.16 225.157 12.78 225.157 13.55C225.157 14.38 225.567 14.9 226.197 14.9C226.637 14.9 226.997 14.6 227.087 14.17C227.107 14.06 227.117 13.94 227.117 13.82ZM234.464 11.11V14.43C234.464 15.07 234.484 15.59 234.504 16H233.184L233.114 15.31H233.084C232.894 15.61 232.434 16.11 231.554 16.11C230.554 16.11 229.834 15.49 229.834 13.98V11.11H231.354V13.74C231.354 14.45 231.584 14.88 232.124 14.88C232.544 14.88 232.794 14.59 232.884 14.35C232.924 14.26 232.944 14.15 232.944 14.02V11.11H234.464ZM235.684 16V8.9H237.204V16H235.684ZM242.758 14.04H239.608C239.648 14.67 240.278 14.97 240.988 14.97C241.508 14.97 241.928 14.9 242.338 14.76L242.538 15.79C242.038 16 241.428 16.1 240.768 16.1C239.108 16.1 238.158 15.14 238.158 13.61C238.158 12.37 238.928 11 240.628 11C242.208 11 242.808 12.23 242.808 13.44C242.808 13.7 242.778 13.93 242.758 14.04ZM239.598 13H241.398C241.398 12.63 241.238 12.01 240.538 12.01C239.898 12.01 239.638 12.6 239.598 13Z" fill="black"/>
<path d="M229.9 32H222.985V30.62L224.23 29.495C226.375 27.575 227.41 26.48 227.425 25.34C227.425 24.545 226.96 23.915 225.835 23.915C224.995 23.915 224.26 24.335 223.75 24.71L223.105 23.09C223.825 22.535 224.98 22.085 226.285 22.085C228.505 22.085 229.705 23.375 229.705 25.13C229.705 26.78 228.535 28.085 227.11 29.345L226.21 30.095V30.125H229.9V32Z" fill="black"/>
</svg>
